<svg class="rich-terminal" viewBox="0 0 994 1026.0" xmlns="http://www.w3.org/2000/svg">
    <!-- Generated with Rich https://www.textualize.io -->
    <style>

    @font-face {
        font-family: "Fira Code";
        src: local("FiraCode-Regular"),
                url("https://cdnjs.cloudflare.com/ajax/libs/firacode/6.2.0/woff2/FiraCode-Regular.woff2") format("woff2"),
                url("https://cdnjs.cloudflare.com/ajax/libs/firacode/6.2.0/woff/FiraCode-Regular.woff") format("woff");
        font-style: normal;
        font-weight: 400;
    }
    @font-face {
        font-family: "Fira Code";
        src: local("FiraCode-Bold"),
                url("https://cdnjs.cloudflare.com/ajax/libs/firacode/6.2.0/woff2/FiraCode-Bold.woff2") format("woff2"),
                url("https://cdnjs.cloudflare.com/ajax/libs/firacode/6.2.0/woff/FiraCode-Bold.woff") format("woff");
        font-style: bold;
        font-weight: 700;
    }

    .terminal-1419666678-matrix {
        font-family: Fira Code, monospace;
        font-size: 20px;
        line-height: 24.4px;
        font-variant-east-asian: full-width;
    }

    .terminal-1419666678-title {
        font-size: 18px;
        font-weight: bold;
        font-family: arial;
    }

    .terminal-1419666678-r1 { fill: #c5c8c6 }
.terminal-1419666678-r2 { fill: #ffff00 }
.terminal-1419666678-r3 { fill: #e0e0e0 }
.terminal-1419666678-r4 { fill: #aaaaaa }
.terminal-1419666678-r5 { fill: #2a2a2a }
.terminal-1419666678-r6 { fill: #999999;font-weight: bold }
.terminal-1419666678-r7 { fill: #6ee21c }
.terminal-1419666678-r8 { fill: #ffffff }
.terminal-1419666678-r9 { fill: #9b9b9b }
.terminal-1419666678-r10 { fill: #9e9e9e }
    </style>

    <defs>
    <clipPath id="terminal-1419666678-clip-terminal">
      <rect x="0" y="0" width="975.0" height="975.0" />
    </clipPath>
    <clipPath id="terminal-1419666678-line-0">
    <rect x="0" y="1.5" width="976" height="24.65"/>
            </clipPath>
<clipPath id="terminal-1419666678-line-1">
    <rect x="0" y="25.9" width="976" height="24.65"/>
            </clipPath>
<clipPath id="terminal-1419666678-line-2">
    <rect x="0" y="50.3" width="976" height="24.65"/>
            </clipPath>
<clipPath id="terminal-1419666678-line-3">
    <rect x="0" y="74.7" width="976" height="24.65"/>
            </clipPath>
<clipPath id="terminal-1419666678-line-4">
    <rect x="0" y="99.1" width="976" height="24.65"/>
            </clipPath>
<clipPath id="terminal-1419666678-line-5">
    <rect x="0" y="123.5" width="976" height="24.65"/>
            </clipPath>
<clipPath id="terminal-1419666678-line-6">
    <rect x="0" y="147.9" width="976" height="24.65"/>
            </clipPath>
<clipPath id="terminal-1419666678-line-7">
    <rect x="0" y="172.3" width="976" height="24.65"/>
            </clipPath>
<clipPath id="terminal-1419666678-line-8">
    <rect x="0" y="196.7" width="976" height="24.65"/>
            </clipPath>
<clipPath id="terminal-1419666678-line-9">
    <rect x="0" y="221.1" width="976" height="24.65"/>
            </clipPath>
<clipPath id="terminal-1419666678-line-10">
    <rect x="0" y="245.5" width="976" height="24.65"/>
            </clipPath>
<clipPath id="terminal-1419666678-line-11">
    <rect x="0" y="269.9" width="976" height="24.65"/>
            </clipPath>
<clipPath id="terminal-1419666678-line-12">
    <rect x="0" y="294.3" width="976" height="24.65"/>
            </clipPath>
<clipPath id="terminal-1419666678-line-13">
    <rect x="0" y="318.7" width="976" height="24.65"/>
            </clipPath>
<clipPath id="terminal-1419666678-line-14">
    <rect x="0" y="343.1" width="976" height="24.65"/>
            </clipPath>
<clipPath id="terminal-1419666678-line-15">
    <rect x="0" y="367.5" width="976" height="24.65"/>
            </clipPath>
<clipPath id="terminal-1419666678-line-16">
    <rect x="0" y="391.9" width="976" height="24.65"/>
            </clipPath>
<clipPath id="terminal-1419666678-line-17">
    <rect x="0" y="416.3" width="976" height="24.65"/>
            </clipPath>
<clipPath id="terminal-1419666678-line-18">
    <rect x="0" y="440.7" width="976" height="24.65"/>
            </clipPath>
<clipPath id="terminal-1419666678-line-19">
    <rect x="0" y="465.1" width="976" height="24.65"/>
            </clipPath>
<clipPath id="terminal-1419666678-line-20">
    <rect x="0" y="489.5" width="976" height="24.65"/>
            </clipPath>
<clipPath id="terminal-1419666678-line-21">
    <rect x="0" y="513.9" width="976" height="24.65"/>
            </clipPath>
<clipPath id="terminal-1419666678-line-22">
    <rect x="0" y="538.3" width="976" height="24.65"/>
            </clipPath>
<clipPath id="terminal-1419666678-line-23">
    <rect x="0" y="562.7" width="976" height="24.65"/>
            </clipPath>
<clipPath id="terminal-1419666678-line-24">
    <rect x="0" y="587.1" width="976" height="24.65"/>
            </clipPath>
<clipPath id="terminal-1419666678-line-25">
    <rect x="0" y="611.5" width="976" height="24.65"/>
            </clipPath>
<clipPath id="terminal-1419666678-line-26">
    <rect x="0" y="635.9" width="976" height="24.65"/>
            </clipPath>
<clipPath id="terminal-1419666678-line-27">
    <rect x="0" y="660.3" width="976" height="24.65"/>
            </clipPath>
<clipPath id="terminal-1419666678-line-28">
    <rect x="0" y="684.7" width="976" height="24.65"/>
            </clipPath>
<clipPath id="terminal-1419666678-line-29">
    <rect x="0" y="709.1" width="976" height="24.65"/>
            </clipPath>
<clipPath id="terminal-1419666678-line-30">
    <rect x="0" y="733.5" width="976" height="24.65"/>
            </clipPath>
<clipPath id="terminal-1419666678-line-31">
    <rect x="0" y="757.9" width="976" height="24.65"/>
            </clipPath>
<clipPath id="terminal-1419666678-line-32">
    <rect x="0" y="782.3" width="976" height="24.65"/>
            </clipPath>
<clipPath id="terminal-1419666678-line-33">
    <rect x="0" y="806.7" width="976" height="24.65"/>
            </clipPath>
<clipPath id="terminal-1419666678-line-34">
    <rect x="0" y="831.1" width="976" height="24.65"/>
            </clipPath>
<clipPath id="terminal-1419666678-line-35">
    <rect x="0" y="855.5" width="976" height="24.65"/>
            </clipPath>
<clipPath id="terminal-1419666678-line-36">
    <rect x="0" y="879.9" width="976" height="24.65"/>
            </clipPath>
<clipPath id="terminal-1419666678-line-37">
    <rect x="0" y="904.3" width="976" height="24.65"/>
            </clipPath>
<clipPath id="terminal-1419666678-line-38">
    <rect x="0" y="928.7" width="976" height="24.65"/>
            </clipPath>
    </defs>

    <rect fill="#292929" stroke="rgba(255,255,255,0.35)" stroke-width="1" x="1" y="1" width="992" height="1024" rx="8"/><text class="terminal-1419666678-title" fill="#c5c8c6" text-anchor="middle" x="496" y="27">_TestDashboard</text>
            <g transform="translate(26,22)">
            <circle cx="0" cy="0" r="7" fill="#ff5f57"/>
            <circle cx="22" cy="0" r="7" fill="#febc2e"/>
            <circle cx="44" cy="0" r="7" fill="#28c840"/>
            </g>
        
    <g transform="translate(9, 41)" clip-path="url(#terminal-1419666678-clip-terminal)">
    <rect fill="#252525" x="0" y="1.5" width="12.2" height="24.65" shape-rendering="crispEdges"/><rect fill="#252525" x="12.2" y="1.5" width="12.2" height="24.65" shape-rendering="crispEdges"/><rect fill="#252525" x="24.4" y="1.5" width="12.2" height="24.65" shape-rendering="crispEdges"/><rect fill="#252525" x="36.6" y="1.5" width="36.6" height="24.65" shape-rendering="crispEdges"/><rect fill="#252525" x="73.2" y="1.5" width="12.2" height="24.65" shape-rendering="crispEdges"/><rect fill="#252525" x="85.4" y="1.5" width="170.8" height="24.65" shape-rendering="crispEdges"/><rect fill="#252525" x="256.2" y="1.5" width="378.2" height="24.65" shape-rendering="crispEdges"/><rect fill="#252525" x="634.4" y="1.5" width="329.4" height="24.65" shape-rendering="crispEdges"/><rect fill="#252525" x="963.8" y="1.5" width="12.2" height="24.65" shape-rendering="crispEdges"/><rect fill="#161616" x="0" y="25.9" width="12.2" height="24.65" shape-rendering="crispEdges"/><rect fill="#161616" x="12.2" y="25.9" width="463.6" height="24.65" shape-rendering="crispEdges"/><rect fill="#161616" x="475.8" y="25.9" width="12.2" height="24.65" shape-rendering="crispEdges"/><rect fill="#161616" x="488" y="25.9" width="12.2" height="24.65" shape-rendering="crispEdges"/><rect fill="#161616" x="500.2" y="25.9" width="463.6" height="24.65" shape-rendering="crispEdges"/><rect fill="#161616" x="963.8" y="25.9" width="12.2" height="24.65" shape-rendering="crispEdges"/><rect fill="#161616" x="0" y="50.3" width="12.2" height="24.65" shape-rendering="crispEdges"/><rect fill="#161616" x="12.2" y="50.3" width="12.2" height="24.65" shape-rendering="crispEdges"/><rect fill="#161616" x="24.4" y="50.3" width="85.4" height="24.65" shape-rendering="crispEdges"/><rect fill="#161616" x="109.8" y="50.3" width="353.8" height="24.65" shape-rendering="crispEdges"/><rect fill="#161616" x="463.6" y="50.3" width="12.2" height="24.65" shape-rendering="crispEdges"/><rect fill="#161616" x="475.8" y="50.3" width="12.2" height="24.65" shape-rendering="crispEdges"/><rect fill="#161616" x="488" y="50.3" width="12.2" height="24.65" shape-rendering="crispEdges"/><rect fill="#161616" x="500.2" y="50.3" width="12.2" height="24.65" shape-rendering="crispEdges"/><rect fill="#161616" x="512.4" y="50.3" width="109.8" height="24.65" shape-rendering="crispEdges"/><rect fill="#161616" x="622.2" y="50.3" width="329.4" height="24.65" shape-rendering="crispEdges"/><rect fill="#161616" x="951.6" y="50.3" width="12.2" height="24.65" shape-rendering="crispEdges"/><rect fill="#161616" x="963.8" y="50.3" width="12.2" height="24.65" shape-rendering="crispEdges"/><rect fill="#161616" x="0" y="74.7" width="12.2" height="24.65" shape-rendering="crispEdges"/><rect fill="#161616" x="12.2" y="74.7" width="12.2" height="24.65" shape-rendering="crispEdges"/><rect fill="#161616" x="24.4" y="74.7" width="97.6" height="24.65" shape-rendering="crispEdges"/><rect fill="#161616" x="122" y="74.7" width="24.4" height="24.65" shape-rendering="crispEdges"/><rect fill="#161616" x="146.4" y="74.7" width="61" height="24.65" shape-rendering="crispEdges"/><rect fill="#161616" x="207.4" y="74.7" width="61" height="24.65" shape-rendering="crispEdges"/><rect fill="#161616" x="268.4" y="74.7" width="122" height="24.65" shape-rendering="crispEdges"/><rect fill="#161616" x="390.4" y="74.7" width="73.2" height="24.65" shape-rendering="crispEdges"/><rect fill="#161616" x="463.6" y="74.7" width="12.2" height="24.65" shape-rendering="crispEdges"/><rect fill="#161616" x="475.8" y="74.7" width="12.2" height="24.65" shape-rendering="crispEdges"/><rect fill="#161616" x="488" y="74.7" width="12.2" height="24.65" shape-rendering="crispEdges"/><rect fill="#161616" x="500.2" y="74.7" width="12.2" height="24.65" shape-rendering="crispEdges"/><rect fill="#161616" x="512.4" y="74.7" width="231.8" height="24.65" shape-rendering="crispEdges"/><rect fill="#161616" x="744.2" y="74.7" width="207.4" height="24.65" shape-rendering="crispEdges"/><rect fill="#161616" x="951.6" y="74.7" width="12.2" height="24.65" shape-rendering="crispEdges"/><rect fill="#161616" x="963.8" y="74.7" width="12.2" height="24.65" shape-rendering="crispEdges"/><rect fill="#161616" x="0" y="99.1" width="12.2" height="24.65" shape-rendering="crispEdges"/><rect fill="#161616" x="12.2" y="99.1" width="12.2" height="24.65" shape-rendering="crispEdges"/><rect fill="#161616" x="24.4" y="99.1" width="305" height="24.65" shape-rendering="crispEdges"/><rect fill="#161616" x="329.4" y="99.1" width="134.2" height="24.65" shape-rendering="crispEdges"/><rect fill="#161616" x="463.6" y="99.1" width="12.2" height="24.65" shape-rendering="crispEdges"/><rect fill="#161616" x="475.8" y="99.1" width="12.2" height="24.65" shape-rendering="crispEdges"/><rect fill="#161616" x="488" y="99.1" width="12.2" height="24.65" shape-rendering="crispEdges"/><rect fill="#161616" x="500.2" y="99.1" width="463.6" height="24.65" shape-rendering="crispEdges"/><rect fill="#161616" x="963.8" y="99.1" width="12.2" height="24.65" shape-rendering="crispEdges"/><rect fill="#161616" x="0" y="123.5" width="12.2" height="24.65" shape-rendering="crispEdges"/><rect fill="#161616" x="12.2" y="123.5" width="12.2" height="24.65" shape-rendering="crispEdges"/><rect fill="#161616" x="24.4" y="123.5" width="0" height="24.65" shape-rendering="crispEdges"/><rect fill="#161616" x="24.4" y="123.5" width="439.2" height="24.65" shape-rendering="crispEdges"/><rect fill="#161616" x="463.6" y="123.5" width="12.2" height="24.65" shape-rendering="crispEdges"/><rect fill="#161616" x="475.8" y="123.5" width="12.2" height="24.65" shape-rendering="crispEdges"/><rect fill="#121212" x="488" y="123.5" width="488" height="24.65" shape-rendering="crispEdges"/><rect fill="#161616" x="0" y="147.9" width="12.2" height="24.65" shape-rendering="crispEdges"/><rect fill="#161616" x="12.2" y="147.9" width="12.2" height="24.65" shape-rendering="crispEdges"/><rect fill="#161616" x="24.4" y="147.9" width="207.4" height="24.65" shape-rendering="crispEdges"/><rect fill="#161616" x="231.8" y="147.9" width="231.8" height="24.65" shape-rendering="crispEdges"/><rect fill="#161616" x="463.6" y="147.9" width="12.2" height="24.65" shape-rendering="crispEdges"/><rect fill="#161616" x="475.8" y="147.9" width="12.2" height="24.65" shape-rendering="crispEdges"/><rect fill="#121212" x="488" y="147.9" width="488" height="24.65" shape-rendering="crispEdges"/><rect fill="#161616" x="0" y="172.3" width="12.2" height="24.65" shape-rendering="crispEdges"/><rect fill="#161616" x="12.2" y="172.3" width="463.6" height="24.65" shape-rendering="crispEdges"/><rect fill="#161616" x="475.8" y="172.3" width="12.2" height="24.65" shape-rendering="crispEdges"/><rect fill="#121212" x="488" y="172.3" width="488" height="24.65" shape-rendering="crispEdges"/><rect fill="#121212" x="0" y="196.7" width="976" height="24.65" shape-rendering="crispEdges"/><rect fill="#161616" x="0" y="221.1" width="12.2" height="24.65" shape-rendering="crispEdges"/><rect fill="#161616" x="12.2" y="221.1" width="951.6" height="24.65" shape-rendering="crispEdges"/><rect fill="#161616" x="963.8" y="221.1" width="12.2" height="24.65" shape-rendering="crispEdges"/><rect fill="#161616" x="0" y="245.5" width="12.2" height="24.65" shape-rendering="crispEdges"/><rect fill="#161616" x="12.2" y="245.5" width="12.2" height="24.65" shape-rendering="crispEdges"/><rect fill="#161616" x="24.4" y="245.5" width="61" height="24.65" shape-rendering="crispEdges"/><rect fill="#161616" x="85.4" y="245.5" width="317.2" height="24.65" shape-rendering="crispEdges"/><rect fill="#161616" x="402.6" y="245.5" width="549" height="24.65" shape-rendering="crispEdges"/><rect fill="#161616" x="951.6" y="245.5" width="12.2" height="24.65" shape-rendering="crispEdges"/><rect fill="#161616" x="963.8" y="245.5" width="12.2" height="24.65" shape-rendering="crispEdges"/><rect fill="#161616" x="0" y="269.9" width="12.2" height="24.65" shape-rendering="crispEdges"/><rect fill="#161616" x="12.2" y="269.9" width="12.2" height="24.65" shape-rendering="crispEdges"/><rect fill="#161616" x="24.4" y="269.9" width="366" height="24.65" shape-rendering="crispEdges"/><rect fill="#161616" x="390.4" y="269.9" width="561.2" height="24.65" shape-rendering="crispEdges"/><rect fill="#161616" x="951.6" y="269.9" width="12.2" height="24.65" shape-rendering="crispEdges"/><rect fill="#161616" x="963.8" y="269.9" width="12.2" height="24.65" shape-rendering="crispEdges"/><rect fill="#161616" x="0" y="294.3" width="12.2" height="24.65" shape-rendering="crispEdges"/><rect fill="#161616" x="12.2" y="294.3" width="12.2" height="24.65" shape-rendering="crispEdges"/><rect fill="#161616" x="24.4" y="294.3" width="927.2" height="24.65" shape-rendering="crispEdges"/><rect fill="#161616" x="951.6" y="294.3" width="12.2" height="24.65" shape-rendering="crispEdges"/><rect fill="#161616" x="963.8" y="294.3" width="12.2" height="24.65" shape-rendering="crispEdges"/><rect fill="#161616" x="0" y="318.7" width="12.2" height="24.65" shape-rendering="crispEdges"/><rect fill="#161616" x="12.2" y="318.7" width="12.2" height="24.65" shape-rendering="crispEdges"/><rect fill="#161616" x="24.4" y="318.7" width="927.2" height="24.65" shape-rendering="crispEdges"/><rect fill="#161616" x="951.6" y="318.7" width="12.2" height="24.65" shape-rendering="crispEdges"/><rect fill="#161616" x="963.8" y="318.7" width="12.2" height="24.65" shape-rendering="crispEdges"/><rect fill="#161616" x="0" y="343.1" width="12.2" height="24.65" shape-rendering="crispEdges"/><rect fill="#161616" x="12.2" y="343.1" width="12.2" height="24.65" shape-rendering="crispEdges"/><rect fill="#161616" x="24.4" y="343.1" width="927.2" height="24.65" shape-rendering="crispEdges"/><rect fill="#161616" x="951.6" y="343.1" width="12.2" height="24.65" shape-rendering="crispEdges"/><rect fill="#161616" x="963.8" y="343.1" width="12.2" height="24.65" shape-rendering="crispEdges"/><rect fill="#161616" x="0" y="367.5" width="12.2" height="24.65" shape-rendering="crispEdges"/><rect fill="#161616" x="12.2" y="367.5" width="12.2" height="24.65" shape-rendering="crispEdges"/><rect fill="#161616" x="24.4" y="367.5" width="927.2" height="24.65" shape-rendering="crispEdges"/><rect fill="#161616" x="951.6" y="367.5" width="12.2" height="24.65" shape-rendering="crispEdges"/><rect fill="#161616" x="963.8" y="367.5" width="12.2" height="24.65" shape-rendering="crispEdges"/><rect fill="#161616" x="0" y="391.9" width="12.2" height="24.65" shape-rendering="crispEdges"/><rect fill="#161616" x="12.2" y="391.9" width="12.2" height="24.65" shape-rendering="crispEdges"/><rect fill="#161616" x="24.4" y="391.9" width="927.2" height="24.65" shape-rendering="crispEdges"/><rect fill="#161616" x="951.6" y="391.9" width="12.2" height="24.65" shape-rendering="crispEdges"/><rect fill="#161616" x="963.8" y="391.9" width="12.2" height="24.65" shape-rendering="crispEdges"/><rect fill="#161616" x="0" y="416.3" width="12.2" height="24.65" shape-rendering="crispEdges"/><rect fill="#161616" x="12.2" y="416.3" width="12.2" height="24.65" shape-rendering="crispEdges"/><rect fill="#161616" x="24.4" y="416.3" width="927.2" height="24.65" shape-rendering="crispEdges"/><rect fill="#161616" x="951.6" y="416.3" width="12.2" height="24.65" shape-rendering="crispEdges"/><rect fill="#161616" x="963.8" y="416.3" width="12.2" height="24.65" shape-rendering="crispEdges"/><rect fill="#161616" x="0" y="440.7" width="12.2" height="24.65" shape-rendering="crispEdges"/><rect fill="#161616" x="12.2" y="440.7" width="12.2" height="24.65" shape-rendering="crispEdges"/><rect fill="#161616" x="24.4" y="440.7" width="927.2" height="24.65" shape-rendering="crispEdges"/><rect fill="#161616" x="951.6" y="440.7" width="12.2" height="24.65" shape-rendering="crispEdges"/><rect fill="#161616" x="963.8" y="440.7" width="12.2" height="24.65" shape-rendering="crispEdges"/><rect fill="#161616" x="0" y="465.1" width="12.2" height="24.65" shape-rendering="crispEdges"/><rect fill="#161616" x="12.2" y="465.1" width="12.2" height="24.65" shape-rendering="crispEdges"/><rect fill="#161616" x="24.4" y="465.1" width="927.2" height="24.65" shape-rendering="crispEdges"/><rect fill="#161616" x="951.6" y="465.1" width="12.2" height="24.65" shape-rendering="crispEdges"/><rect fill="#161616" x="963.8" y="465.1" width="12.2" height="24.65" shape-rendering="crispEdges"/><rect fill="#161616" x="0" y="489.5" width="12.2" height="24.65" shape-rendering="crispEdges"/><rect fill="#161616" x="12.2" y="489.5" width="12.2" height="24.65" shape-rendering="crispEdges"/><rect fill="#161616" x="24.4" y="489.5" width="927.2" height="24.65" shape-rendering="crispEdges"/><rect fill="#161616" x="951.6" y="489.5" width="12.2" height="24.65" shape-rendering="crispEdges"/><rect fill="#161616" x="963.8" y="489.5" width="12.2" height="24.65" shape-rendering="crispEdges"/><rect fill="#161616" x="0" y="513.9" width="12.2" height="24.65" shape-rendering="crispEdges"/><rect fill="#161616" x="12.2" y="513.9" width="12.2" height="24.65" shape-rendering="crispEdges"/><rect fill="#161616" x="24.4" y="513.9" width="927.2" height="24.65" shape-rendering="crispEdges"/><rect fill="#161616" x="951.6" y="513.9" width="12.2" height="24.65" shape-rendering="crispEdges"/><rect fill="#161616" x="963.8" y="513.9" width="12.2" height="24.65" shape-rendering="crispEdges"/><rect fill="#161616" x="0" y="538.3" width="12.2" height="24.65" shape-rendering="crispEdges"/><rect fill="#161616" x="12.2" y="538.3" width="12.2" height="24.65" shape-rendering="crispEdges"/><rect fill="#161616" x="24.4" y="538.3" width="927.2" height="24.65" shape-rendering="crispEdges"/><rect fill="#161616" x="951.6" y="538.3" width="12.2" height="24.65" shape-rendering="crispEdges"/><rect fill="#161616" x="963.8" y="538.3" width="12.2" height="24.65" shape-rendering="crispEdges"/><rect fill="#161616" x="0" y="562.7" width="12.2" height="24.65" shape-rendering="crispEdges"/><rect fill="#161616" x="12.2" y="562.7" width="12.2" height="24.65" shape-rendering="crispEdges"/><rect fill="#161616" x="24.4" y="562.7" width="927.2" height="24.65" shape-rendering="crispEdges"/><rect fill="#161616" x="951.6" y="562.7" width="12.2" height="24.65" shape-rendering="crispEdges"/><rect fill="#161616" x="963.8" y="562.7" width="12.2" height="24.65" shape-rendering="crispEdges"/><rect fill="#161616" x="0" y="587.1" width="12.2" height="24.65" shape-rendering="crispEdges"/><rect fill="#161616" x="12.2" y="587.1" width="12.2" height="24.65" shape-rendering="crispEdges"/><rect fill="#161616" x="24.4" y="587.1" width="927.2" height="24.65" shape-rendering="crispEdges"/><rect fill="#161616" x="951.6" y="587.1" width="12.2" height="24.65" shape-rendering="crispEdges"/><rect fill="#161616" x="963.8" y="587.1" width="12.2" height="24.65" shape-rendering="crispEdges"/><rect fill="#161616" x="0" y="611.5" width="12.2" height="24.65" shape-rendering="crispEdges"/><rect fill="#161616" x="12.2" y="611.5" width="12.2" height="24.65" shape-rendering="crispEdges"/><rect fill="#161616" x="24.4" y="611.5" width="927.2" height="24.65" shape-rendering="crispEdges"/><rect fill="#161616" x="951.6" y="611.5" width="12.2" height="24.65" shape-rendering="crispEdges"/><rect fill="#161616" x="963.8" y="611.5" width="12.2" height="24.65" shape-rendering="crispEdges"/><rect fill="#161616" x="0" y="635.9" width="12.2" height="24.65" shape-rendering="crispEdges"/><rect fill="#161616" x="12.2" y="635.9" width="12.2" height="24.65" shape-rendering="crispEdges"/><rect fill="#161616" x="24.4" y="635.9" width="927.2" height="24.65" shape-rendering="crispEdges"/><rect fill="#161616" x="951.6" y="635.9" width="12.2" height="24.65" shape-rendering="crispEdges"/><rect fill="#161616" x="963.8" y="635.9" width="12.2" height="24.65" shape-rendering="crispEdges"/><rect fill="#161616" x="0" y="660.3" width="12.2" height="24.65" shape-rendering="crispEdges"/><rect fill="#161616" x="12.2" y="660.3" width="12.2" height="24.65" shape-rendering="crispEdges"/><rect fill="#161616" x="24.4" y="660.3" width="927.2" height="24.65" shape-rendering="crispEdges"/><rect fill="#161616" x="951.6" y="660.3" width="12.2" height="24.65" shape-rendering="crispEdges"/><rect fill="#161616" x="963.8" y="660.3" width="12.2" height="24.65" shape-rendering="crispEdges"/><rect fill="#161616" x="0" y="684.7" width="12.2" height="24.65" shape-rendering="crispEdges"/><rect fill="#161616" x="12.2" y="684.7" width="12.2" height="24.65" shape-rendering="crispEdges"/><rect fill="#161616" x="24.4" y="684.7" width="927.2" height="24.65" shape-rendering="crispEdges"/><rect fill="#161616" x="951.6" y="684.7" width="12.2" height="24.65" shape-rendering="crispEdges"/><rect fill="#161616" x="963.8" y="684.7" width="12.2" height="24.65" shape-rendering="crispEdges"/><rect fill="#161616" x="0" y="709.1" width="12.2" height="24.65" shape-rendering="crispEdges"/><rect fill="#161616" x="12.2" y="709.1" width="12.2" height="24.65" shape-rendering="crispEdges"/><rect fill="#161616" x="24.4" y="709.1" width="927.2" height="24.65" shape-rendering="crispEdges"/><rect fill="#161616" x="951.6" y="709.1" width="12.2" height="24.65" shape-rendering="crispEdges"/><rect fill="#161616" x="963.8" y="709.1" width="12.2" height="24.65" shape-rendering="crispEdges"/><rect fill="#161616" x="0" y="733.5" width="12.2" height="24.65" shape-rendering="crispEdges"/><rect fill="#161616" x="12.2" y="733.5" width="12.2" height="24.65" shape-rendering="crispEdges"/><rect fill="#161616" x="24.4" y="733.5" width="927.2" height="24.65" shape-rendering="crispEdges"/><rect fill="#161616" x="951.6" y="733.5" width="12.2" height="24.65" shape-rendering="crispEdges"/><rect fill="#161616" x="963.8" y="733.5" width="12.2" height="24.65" shape-rendering="crispEdges"/><rect fill="#161616" x="0" y="757.9" width="12.2" height="24.65" shape-rendering="crispEdges"/><rect fill="#161616" x="12.2" y="757.9" width="12.2" height="24.65" shape-rendering="crispEdges"/><rect fill="#161616" x="24.4" y="757.9" width="927.2" height="24.65" shape-rendering="crispEdges"/><rect fill="#161616" x="951.6" y="757.9" width="12.2" height="24.65" shape-rendering="crispEdges"/><rect fill="#161616" x="963.8" y="757.9" width="12.2" height="24.65" shape-rendering="crispEdges"/><rect fill="#161616" x="0" y="782.3" width="12.2" height="24.65" shape-rendering="crispEdges"/><rect fill="#161616" x="12.2" y="782.3" width="12.2" height="24.65" shape-rendering="crispEdges"/><rect fill="#161616" x="24.4" y="782.3" width="927.2" height="24.65" shape-rendering="crispEdges"/><rect fill="#161616" x="951.6" y="782.3" width="12.2" height="24.65" shape-rendering="crispEdges"/><rect fill="#161616" x="963.8" y="782.3" width="12.2" height="24.65" shape-rendering="crispEdges"/><rect fill="#161616" x="0" y="806.7" width="12.2" height="24.65" shape-rendering="crispEdges"/><rect fill="#161616" x="12.2" y="806.7" width="951.6" height="24.65" shape-rendering="crispEdges"/><rect fill="#161616" x="963.8" y="806.7" width="12.2" height="24.65" shape-rendering="crispEdges"/><rect fill="#1e1e1e" x="0" y="831.1" width="12.2" height="24.65" shape-rendering="crispEdges"/><rect fill="#1e1e1e" x="12.2" y="831.1" width="0" height="24.65" shape-rendering="crispEdges"/><rect fill="#1e1e1e" x="12.2" y="831.1" width="951.6" height="24.65" shape-rendering="crispEdges"/><rect fill="#1e1e1e" x="963.8" y="831.1" width="12.2" height="24.65" shape-rendering="crispEdges"/><rect fill="#1e1e1e" x="0" y="855.5" width="976" height="24.65" shape-rendering="crispEdges"/><rect fill="#1e1e1e" x="0" y="879.9" width="61" height="24.65" shape-rendering="crispEdges"/><rect fill="#1e1e1e" x="61" y="879.9" width="97.6" height="24.65" shape-rendering="crispEdges"/><rect fill="#1e1e1e" x="158.6" y="879.9" width="36.6" height="24.65" shape-rendering="crispEdges"/><rect fill="#1e1e1e" x="195.2" y="879.9" width="122" height="24.65" shape-rendering="crispEdges"/><rect fill="#1e1e1e" x="317.2" y="879.9" width="36.6" height="24.65" shape-rendering="crispEdges"/><rect fill="#1e1e1e" x="353.8" y="879.9" width="97.6" height="24.65" shape-rendering="crispEdges"/><rect fill="#1e1e1e" x="451.4" y="879.9" width="36.6" height="24.65" shape-rendering="crispEdges"/><rect fill="#1e1e1e" x="488" y="879.9" width="97.6" height="24.65" shape-rendering="crispEdges"/><rect fill="#1e1e1e" x="585.6" y="879.9" width="36.6" height="24.65" shape-rendering="crispEdges"/><rect fill="#1e1e1e" x="622.2" y="879.9" width="109.8" height="24.65" shape-rendering="crispEdges"/><rect fill="#1e1e1e" x="732" y="879.9" width="36.6" height="24.65" shape-rendering="crispEdges"/><rect fill="#1e1e1e" x="768.6" y="879.9" width="109.8" height="24.65" shape-rendering="crispEdges"/><rect fill="#1e1e1e" x="878.4" y="879.9" width="36.6" height="24.65" shape-rendering="crispEdges"/><rect fill="#1e1e1e" x="915" y="879.9" width="61" height="24.65" shape-rendering="crispEdges"/><rect fill="#1e1e1e" x="0" y="904.3" width="36.6" height="24.65" shape-rendering="crispEdges"/><rect fill="#1e1e1e" x="36.6" y="904.3" width="122" height="24.65" shape-rendering="crispEdges"/><rect fill="#1e1e1e" x="158.6" y="904.3" width="36.6" height="24.65" shape-rendering="crispEdges"/><rect fill="#1e1e1e" x="195.2" y="904.3" width="85.4" height="24.65" shape-rendering="crispEdges"/><rect fill="#1e1e1e" x="280.6" y="904.3" width="36.6" height="24.65" shape-rendering="crispEdges"/><rect fill="#1e1e1e" x="317.2" y="904.3" width="61" height="24.65" shape-rendering="crispEdges"/><rect fill="#1e1e1e" x="378.2" y="904.3" width="597.8" height="24.65" shape-rendering="crispEdges"/><rect fill="#1e1e1e" x="0" y="928.7" width="976" height="24.65" shape-rendering="crispEdges"/><rect fill="#1e1e1e" x="0" y="953.1" width="12.2" height="24.65" shape-rendering="crispEdges"/><rect fill="#1e1e1e" x="12.2" y="953.1" width="207.4" height="24.65" shape-rendering="crispEdges"/><rect fill="#1e1e1e" x="219.6" y="953.1" width="744.2" height="24.65" shape-rendering="crispEdges"/><rect fill="#1e1e1e" x="963.8" y="953.1" width="12.2" height="24.65" shape-rendering="crispEdges"/>
    <g class="terminal-1419666678-matrix">
    <text class="terminal-1419666678-r2" x="12.2" y="20" textLength="12.2" clip-path="url(#terminal-1419666678-line-0)">→</text><text class="terminal-1419666678-r4" x="36.6" y="20" textLength="36.6" clip-path="url(#terminal-1419666678-line-0)">[F]</text><text class="terminal-1419666678-r2" x="85.4" y="20" textLength="170.8" clip-path="url(#terminal-1419666678-line-0)">Create&#160;a&#160;field</text><text class="terminal-1419666678-r3" x="256.2" y="20" textLength="378.2" clip-path="url(#terminal-1419666678-line-0)">&#160;—&#160;choose&#160;a&#160;cube&#160;for&#160;your&#160;agent</text><text class="terminal-1419666678-r1" x="976" y="20" textLength="12.2" clip-path="url(#terminal-1419666678-line-0)">
</text><text class="terminal-1419666678-r5" x="0" y="44.4" textLength="12.2" clip-path="url(#terminal-1419666678-line-1)">┌</text><text class="terminal-1419666678-r5" x="12.2" y="44.4" textLength="463.6" clip-path="url(#terminal-1419666678-line-1)">──────────────────────────────────────</text><text class="terminal-1419666678-r5" x="475.8" y="44.4" textLength="12.2" clip-path="url(#terminal-1419666678-line-1)">┐</text><text class="terminal-1419666678-r5" x="488" y="44.4" textLength="12.2" clip-path="url(#terminal-1419666678-line-1)">┌</text><text class="terminal-1419666678-r5" x="500.2" y="44.4" textLength="463.6" clip-path="url(#terminal-1419666678-line-1)">──────────────────────────────────────</text><text class="terminal-1419666678-r5" x="963.8" y="44.4" textLength="12.2" clip-path="url(#terminal-1419666678-line-1)">┐</text><text class="terminal-1419666678-r1" x="976" y="44.4" textLength="12.2" clip-path="url(#terminal-1419666678-line-1)">
</text><text class="terminal-1419666678-r5" x="0" y="68.8" textLength="12.2" clip-path="url(#terminal-1419666678-line-2)">│</text><text class="terminal-1419666678-r6" x="24.4" y="68.8" textLength="85.4" clip-path="url(#terminal-1419666678-line-2)">═&#160;AGENT</text><text class="terminal-1419666678-r5" x="475.8" y="68.8" textLength="12.2" clip-path="url(#terminal-1419666678-line-2)">│</text><text class="terminal-1419666678-r5" x="488" y="68.8" textLength="12.2" clip-path="url(#terminal-1419666678-line-2)">│</text><text class="terminal-1419666678-r6" x="512.4" y="68.8" textLength="109.8" clip-path="url(#terminal-1419666678-line-2)">═&#160;ECONOMY</text><text class="terminal-1419666678-r5" x="963.8" y="68.8" textLength="12.2" clip-path="url(#terminal-1419666678-line-2)">│</text><text class="terminal-1419666678-r1" x="976" y="68.8" textLength="12.2" clip-path="url(#terminal-1419666678-line-2)">
</text><text class="terminal-1419666678-r5" x="0" y="93.2" textLength="12.2" clip-path="url(#terminal-1419666678-line-3)">│</text><text class="terminal-1419666678-r7" x="24.4" y="93.2" textLength="97.6" clip-path="url(#terminal-1419666678-line-3)">●&#160;ACTIVE</text><text class="terminal-1419666678-r8" x="146.4" y="93.2" textLength="61" clip-path="url(#terminal-1419666678-line-3)">1,000</text><text class="terminal-1419666678-r9" x="207.4" y="93.2" textLength="61" clip-path="url(#terminal-1419666678-line-3)">/5k&#160;E</text><text class="terminal-1419666678-r8" x="268.4" y="93.2" textLength="122" clip-path="url(#terminal-1419666678-line-3)">&#160;&#160;▓▒░░░░░░</text><text class="terminal-1419666678-r5" x="475.8" y="93.2" textLength="12.2" clip-path="url(#terminal-1419666678-line-3)">│</text><text class="terminal-1419666678-r5" x="488" y="93.2" textLength="12.2" clip-path="url(#terminal-1419666678-line-3)">│</text><text class="terminal-1419666678-r9" x="512.4" y="93.2" textLength="231.8" clip-path="url(#terminal-1419666678-line-3)">Joining&#160;universe...</text><text class="terminal-1419666678-r5" x="963.8" y="93.2" textLength="12.2" clip-path="url(#terminal-1419666678-line-3)">│</text><text class="terminal-1419666678-r1" x="976" y="93.2" textLength="12.2" clip-path="url(#terminal-1419666678-line-3)">
</text><text class="terminal-1419666678-r5" x="0" y="117.6" textLength="12.2" clip-path="url(#terminal-1419666678-line-4)">│</text><text class="terminal-1419666678-r8" x="24.4" y="117.6" textLength="305" clip-path="url(#terminal-1419666678-line-4)">T2&#160;Oscillator&#160;&#160;Score:&#160;340</text><text class="terminal-1419666678-r5" x="475.8" y="117.6" textLength="12.2" clip-path="url(#terminal-1419666678-line-4)">│</text><text class="terminal-1419666678-r5" x="488" y="117.6" textLength="12.2" clip-path="url(#terminal-1419666678-line-4)">└</text><text class="terminal-1419666678-r5" x="500.2" y="117.6" textLength="463.6" clip-path="url(#terminal-1419666678-line-4)">──────────────────────────────────────</text><text class="terminal-1419666678-r5" x="963.8" y="117.6" textLength="12.2" clip-path="url(#terminal-1419666678-line-4)">┘</text><text class="terminal-1419666678-r1" x="976" y="117.6" textLength="12.2" clip-path="url(#terminal-1419666678-line-4)">
</text><text class="terminal-1419666678-r5" x="0" y="142" textLength="12.2" clip-path="url(#terminal-1419666678-line-5)">│</text><text class="terminal-1419666678-r5" x="475.8" y="142" textLength="12.2" clip-path="url(#terminal-1419666678-line-5)">│</text><text class="terminal-1419666678-r1" x="976" y="142" textLength="12.2" clip-path="url(#terminal-1419666678-line-5)">
</text><text class="terminal-1419666678-r5" x="0" y="166.4" textLength="12.2" clip-path="url(#terminal-1419666678-line-6)">│</text><text class="terminal-1419666678-r8" x="24.4" y="166.4" textLength="195.2" clip-path="url(#terminal-1419666678-line-6)">Compass:&#160;🌱&#160;&#160;Grow</text><text class="terminal-1419666678-r5" x="475.8" y="166.4" textLength="12.2" clip-path="url(#terminal-1419666678-line-6)">│</text><text class="terminal-1419666678-r1" x="976" y="166.4" textLength="12.2" clip-path="url(#terminal-1419666678-line-6)">
</text><text class="terminal-1419666678-r5" x="0" y="190.8" textLength="12.2" clip-path="url(#terminal-1419666678-line-7)">└</text><text class="terminal-1419666678-r5" x="12.2" y="190.8" textLength="463.6" clip-path="url(#terminal-1419666678-line-7)">──────────────────────────────────────</text><text class="terminal-1419666678-r5" x="475.8" y="190.8" textLength="12.2" clip-path="url(#terminal-1419666678-line-7)">┘</text><text class="terminal-1419666678-r1" x="976" y="190.8" textLength="12.2" clip-path="url(#terminal-1419666678-line-7)">
</text><text class="terminal-1419666678-r1" x="976" y="215.2" textLength="12.2" clip-path="url(#terminal-1419666678-line-8)">
</text><text class="terminal-1419666678-r5" x="0" y="239.6" textLength="12.2" clip-path="url(#terminal-1419666678-line-9)">┌</text><text class="terminal-1419666678-r5" x="12.2" y="239.6" textLength="951.6" clip-path="url(#terminal-1419666678-line-9)">──────────────────────────────────────────────────────────────────────────────</text><text class="terminal-1419666678-r5" x="963.8" y="239.6" textLength="12.2" clip-path="url(#terminal-1419666678-line-9)">┐</text><text class="terminal-1419666678-r1" x="976" y="239.6" textLength="12.2" clip-path="url(#terminal-1419666678-line-9)">
</text><text class="terminal-1419666678-r5" x="0" y="264" textLength="12.2" clip-path="url(#terminal-1419666678-line-10)">│</text><text class="terminal-1419666678-r6" x="24.4" y="264" textLength="61" clip-path="url(#terminal-1419666678-line-10)">═&#160;LOG</text><text class="terminal-1419666678-r9" x="85.4" y="264" textLength="317.2" clip-path="url(#terminal-1419666678-line-10)">&#160;&#160;[L]&#160;fullscreen&#160;&#160;[M]&#160;chat</text><text class="terminal-1419666678-r5" x="963.8" y="264" textLength="12.2" clip-path="url(#terminal-1419666678-line-10)">│</text><text class="terminal-1419666678-r1" x="976" y="264" textLength="12.2" clip-path="url(#terminal-1419666678-line-10)">
</text><text class="terminal-1419666678-r5" x="0" y="288.4" textLength="12.2" clip-path="url(#terminal-1419666678-line-11)">│</text><text class="terminal-1419666678-r9" x="24.4" y="288.4" textLength="366" clip-path="url(#terminal-1419666678-line-11)">Connecting&#160;to&#160;cosmergon.com...</text><text class="terminal-1419666678-r5" x="963.8" y="288.4" textLength="12.2" clip-path="url(#terminal-1419666678-line-11)">│</text><text class="terminal-1419666678-r1" x="976" y="288.4" textLength="12.2" clip-path="url(#terminal-1419666678-line-11)">
</text><text class="terminal-1419666678-r5" x="0" y="312.8" textLength="12.2" clip-path="url(#terminal-1419666678-line-12)">│</text><text class="terminal-1419666678-r5" x="963.8" y="312.8" textLength="12.2" clip-path="url(#terminal-1419666678-line-12)">│</text><text class="terminal-1419666678-r1" x="976" y="312.8" textLength="12.2" clip-path="url(#terminal-1419666678-line-12)">
</text><text class="terminal-1419666678-r5" x="0" y="337.2" textLength="12.2" clip-path="url(#terminal-1419666678-line-13)">│</text><text class="terminal-1419666678-r5" x="963.8" y="337.2" textLength="12.2" clip-path="url(#terminal-1419666678-line-13)">│</text><text class="terminal-1419666678-r1" x="976" y="337.2" textLength="12.2" clip-path="url(#terminal-1419666678-line-13)">
</text><text class="terminal-1419666678-r5" x="0" y="361.6" textLength="12.2" clip-path="url(#terminal-1419666678-line-14)">│</text><text class="terminal-1419666678-r5" x="963.8" y="361.6" textLength="12.2" clip-path="url(#terminal-1419666678-line-14)">│</text><text class="terminal-1419666678-r1" x="976" y="361.6" textLength="12.2" clip-path="url(#terminal-1419666678-line-14)">
</text><text class="terminal-1419666678-r5" x="0" y="386" textLength="12.2" clip-path="url(#terminal-1419666678-line-15)">│</text><text class="terminal-1419666678-r5" x="963.8" y="386" textLength="12.2" clip-path="url(#terminal-1419666678-line-15)">│</text><text class="terminal-1419666678-r1" x="976" y="386" textLength="12.2" clip-path="url(#terminal-1419666678-line-15)">
</text><text class="terminal-1419666678-r5" x="0" y="410.4" textLength="12.2" clip-path="url(#terminal-1419666678-line-16)">│</text><text class="terminal-1419666678-r5" x="963.8" y="410.4" textLength="12.2" clip-path="url(#terminal-1419666678-line-16)">│</text><text class="terminal-1419666678-r1" x="976" y="410.4" textLength="12.2" clip-path="url(#terminal-1419666678-line-16)">
</text><text class="terminal-1419666678-r5" x="0" y="434.8" textLength="12.2" clip-path="url(#terminal-1419666678-line-17)">│</text><text class="terminal-1419666678-r5" x="963.8" y="434.8" textLength="12.2" clip-path="url(#terminal-1419666678-line-17)">│</text><text class="terminal-1419666678-r1" x="976" y="434.8" textLength="12.2" clip-path="url(#terminal-1419666678-line-17)">
</text><text class="terminal-1419666678-r5" x="0" y="459.2" textLength="12.2" clip-path="url(#terminal-1419666678-line-18)">│</text><text class="terminal-1419666678-r5" x="963.8" y="459.2" textLength="12.2" clip-path="url(#terminal-1419666678-line-18)">│</text><text class="terminal-1419666678-r1" x="976" y="459.2" textLength="12.2" clip-path="url(#terminal-1419666678-line-18)">
</text><text class="terminal-1419666678-r5" x="0" y="483.6" textLength="12.2" clip-path="url(#terminal-1419666678-line-19)">│</text><text class="terminal-1419666678-r5" x="963.8" y="483.6" textLength="12.2" clip-path="url(#terminal-1419666678-line-19)">│</text><text class="terminal-1419666678-r1" x="976" y="483.6" textLength="12.2" clip-path="url(#terminal-1419666678-line-19)">
</text><text class="terminal-1419666678-r5" x="0" y="508" textLength="12.2" clip-path="url(#terminal-1419666678-line-20)">│</text><text class="terminal-1419666678-r5" x="963.8" y="508" textLength="12.2" clip-path="url(#terminal-1419666678-line-20)">│</text><text class="terminal-1419666678-r1" x="976" y="508" textLength="12.2" clip-path="url(#terminal-1419666678-line-20)">
</text><text class="terminal-1419666678-r5" x="0" y="532.4" textLength="12.2" clip-path="url(#terminal-1419666678-line-21)">│</text><text class="terminal-1419666678-r5" x="963.8" y="532.4" textLength="12.2" clip-path="url(#terminal-1419666678-line-21)">│</text><text class="terminal-1419666678-r1" x="976" y="532.4" textLength="12.2" clip-path="url(#terminal-1419666678-line-21)">
</text><text class="terminal-1419666678-r5" x="0" y="556.8" textLength="12.2" clip-path="url(#terminal-1419666678-line-22)">│</text><text class="terminal-1419666678-r5" x="963.8" y="556.8" textLength="12.2" clip-path="url(#terminal-1419666678-line-22)">│</text><text class="terminal-1419666678-r1" x="976" y="556.8" textLength="12.2" clip-path="url(#terminal-1419666678-line-22)">
</text><text class="terminal-1419666678-r5" x="0" y="581.2" textLength="12.2" clip-path="url(#terminal-1419666678-line-23)">│</text><text class="terminal-1419666678-r5" x="963.8" y="581.2" textLength="12.2" clip-path="url(#terminal-1419666678-line-23)">│</text><text class="terminal-1419666678-r1" x="976" y="581.2" textLength="12.2" clip-path="url(#terminal-1419666678-line-23)">
</text><text class="terminal-1419666678-r5" x="0" y="605.6" textLength="12.2" clip-path="url(#terminal-1419666678-line-24)">│</text><text class="terminal-1419666678-r5" x="963.8" y="605.6" textLength="12.2" clip-path="url(#terminal-1419666678-line-24)">│</text><text class="terminal-1419666678-r1" x="976" y="605.6" textLength="12.2" clip-path="url(#terminal-1419666678-line-24)">
</text><text class="terminal-1419666678-r5" x="0" y="630" textLength="12.2" clip-path="url(#terminal-1419666678-line-25)">│</text><text class="terminal-1419666678-r5" x="963.8" y="630" textLength="12.2" clip-path="url(#terminal-1419666678-line-25)">│</text><text class="terminal-1419666678-r1" x="976" y="630" textLength="12.2" clip-path="url(#terminal-1419666678-line-25)">
</text><text class="terminal-1419666678-r5" x="0" y="654.4" textLength="12.2" clip-path="url(#terminal-1419666678-line-26)">│</text><text class="terminal-1419666678-r5" x="963.8" y="654.4" textLength="12.2" clip-path="url(#terminal-1419666678-line-26)">│</text><text class="terminal-1419666678-r1" x="976" y="654.4" textLength="12.2" clip-path="url(#terminal-1419666678-line-26)">
</text><text class="terminal-1419666678-r5" x="0" y="678.8" textLength="12.2" clip-path="url(#terminal-1419666678-line-27)">│</text><text class="terminal-1419666678-r5" x="963.8" y="678.8" textLength="12.2" clip-path="url(#terminal-1419666678-line-27)">│</text><text class="terminal-1419666678-r1" x="976" y="678.8" textLength="12.2" clip-path="url(#terminal-1419666678-line-27)">
</text><text class="terminal-1419666678-r5" x="0" y="703.2" textLength="12.2" clip-path="url(#terminal-1419666678-line-28)">│</text><text class="terminal-1419666678-r5" x="963.8" y="703.2" textLength="12.2" clip-path="url(#terminal-1419666678-line-28)">│</text><text class="terminal-1419666678-r1" x="976" y="703.2" textLength="12.2" clip-path="url(#terminal-1419666678-line-28)">
</text><text class="terminal-1419666678-r5" x="0" y="727.6" textLength="12.2" clip-path="url(#terminal-1419666678-line-29)">│</text><text class="terminal-1419666678-r5" x="963.8" y="727.6" textLength="12.2" clip-path="url(#terminal-1419666678-line-29)">│</text><text class="terminal-1419666678-r1" x="976" y="727.6" textLength="12.2" clip-path="url(#terminal-1419666678-line-29)">
</text><text class="terminal-1419666678-r5" x="0" y="752" textLength="12.2" clip-path="url(#terminal-1419666678-line-30)">│</text><text class="terminal-1419666678-r5" x="963.8" y="752" textLength="12.2" clip-path="url(#terminal-1419666678-line-30)">│</text><text class="terminal-1419666678-r1" x="976" y="752" textLength="12.2" clip-path="url(#terminal-1419666678-line-30)">
</text><text class="terminal-1419666678-r5" x="0" y="776.4" textLength="12.2" clip-path="url(#terminal-1419666678-line-31)">│</text><text class="terminal-1419666678-r5" x="963.8" y="776.4" textLength="12.2" clip-path="url(#terminal-1419666678-line-31)">│</text><text class="terminal-1419666678-r1" x="976" y="776.4" textLength="12.2" clip-path="url(#terminal-1419666678-line-31)">
</text><text class="terminal-1419666678-r5" x="0" y="800.8" textLength="12.2" clip-path="url(#terminal-1419666678-line-32)">│</text><text class="terminal-1419666678-r5" x="963.8" y="800.8" textLength="12.2" clip-path="url(#terminal-1419666678-line-32)">│</text><text class="terminal-1419666678-r1" x="976" y="800.8" textLength="12.2" clip-path="url(#terminal-1419666678-line-32)">
</text><text class="terminal-1419666678-r5" x="0" y="825.2" textLength="12.2" clip-path="url(#terminal-1419666678-line-33)">└</text><text class="terminal-1419666678-r5" x="12.2" y="825.2" textLength="951.6" clip-path="url(#terminal-1419666678-line-33)">──────────────────────────────────────────────────────────────────────────────</text><text class="terminal-1419666678-r5" x="963.8" y="825.2" textLength="12.2" clip-path="url(#terminal-1419666678-line-33)">┘</text><text class="terminal-1419666678-r1" x="976" y="825.2" textLength="12.2" clip-path="url(#terminal-1419666678-line-33)">
</text><text class="terminal-1419666678-r1" x="976" y="849.6" textLength="12.2" clip-path="url(#terminal-1419666678-line-34)">
</text><text class="terminal-1419666678-r5" x="0" y="874" textLength="976" clip-path="url(#terminal-1419666678-line-35)">────────────────────────────────────────────────────────────────────────────────</text><text class="terminal-1419666678-r1" x="976" y="874" textLength="12.2" clip-path="url(#terminal-1419666678-line-35)">
</text><text class="terminal-1419666678-r4" x="0" y="898.4" textLength="61" clip-path="url(#terminal-1419666678-line-36)">[Tab]</text><text class="terminal-1419666678-r3" x="61" y="898.4" textLength="97.6" clip-path="url(#terminal-1419666678-line-36)">&#160;Panel&#160;&#160;</text><text class="terminal-1419666678-r4" x="158.6" y="898.4" textLength="36.6" clip-path="url(#terminal-1419666678-line-36)">[C]</text><text class="terminal-1419666678-r3" x="195.2" y="898.4" textLength="122" clip-path="url(#terminal-1419666678-line-36)">&#160;Compass&#160;&#160;</text><text class="terminal-1419666678-r4" x="317.2" y="898.4" textLength="36.6" clip-path="url(#terminal-1419666678-line-36)">[P]</text><text class="terminal-1419666678-r3" x="353.8" y="898.4" textLength="97.6" clip-path="url(#terminal-1419666678-line-36)">&#160;Place&#160;&#160;</text><text class="terminal-1419666678-r4" x="451.4" y="898.4" textLength="36.6" clip-path="url(#terminal-1419666678-line-36)">[F]</text><text class="terminal-1419666678-r3" x="488" y="898.4" textLength="97.6" clip-path="url(#terminal-1419666678-line-36)">&#160;Field&#160;&#160;</text><text class="terminal-1419666678-r4" x="585.6" y="898.4" textLength="36.6" clip-path="url(#terminal-1419666678-line-36)">[E]</text><text class="terminal-1419666678-r3" x="622.2" y="898.4" textLength="109.8" clip-path="url(#terminal-1419666678-line-36)">&#160;Evolve&#160;&#160;</text><text class="terminal-1419666678-r4" x="732" y="898.4" textLength="36.6" clip-path="url(#terminal-1419666678-line-36)">[V]</text><text class="terminal-1419666678-r3" x="768.6" y="898.4" textLength="109.8" clip-path="url(#terminal-1419666678-line-36)">&#160;Fields&#160;&#160;</text><text class="terminal-1419666678-r4" x="878.4" y="898.4" textLength="36.6" clip-path="url(#terminal-1419666678-line-36)">[M]</text><text class="terminal-1419666678-r3" x="915" y="898.4" textLength="61" clip-path="url(#terminal-1419666678-line-36)">&#160;Chat</text><text class="terminal-1419666678-r1" x="976" y="898.4" textLength="12.2" clip-path="url(#terminal-1419666678-line-36)">
</text><text class="terminal-1419666678-r4" x="0" y="922.8" textLength="36.6" clip-path="url(#terminal-1419666678-line-37)">[U]</text><text class="terminal-1419666678-r3" x="36.6" y="922.8" textLength="122" clip-path="url(#terminal-1419666678-line-37)">&#160;Upgrade&#160;&#160;</text><text class="terminal-1419666678-r4" x="158.6" y="922.8" textLength="36.6" clip-path="url(#terminal-1419666678-line-37)">[?]</text><text class="terminal-1419666678-r3" x="195.2" y="922.8" textLength="85.4" clip-path="url(#terminal-1419666678-line-37)">&#160;Help&#160;&#160;</text><text class="terminal-1419666678-r4" x="280.6" y="922.8" textLength="36.6" clip-path="url(#terminal-1419666678-line-37)">[Q]</text><text class="terminal-1419666678-r3" x="317.2" y="922.8" textLength="61" clip-path="url(#terminal-1419666678-line-37)">&#160;Quit</text><text class="terminal-1419666678-r1" x="976" y="922.8" textLength="12.2" clip-path="url(#terminal-1419666678-line-37)">
</text><text class="terminal-1419666678-r1" x="976" y="947.2" textLength="12.2" clip-path="url(#terminal-1419666678-line-38)">
</text><text class="terminal-1419666678-r10" x="12.2" y="971.6" textLength="207.4" clip-path="url(#terminal-1419666678-line-39)">test-age&#160;│&#160;tick&#160;1</text>
    </g>
    </g>
</svg>
